mtllib model_10.mtl
o model_10
v 0 -0.45283499360084534 1.0155309438705444 
v 0 -0.4378100037574768 1.0155309438705444 
v 0.00184299994725734 2.5340991020202637 1.191946029663086 
v 0.0022700000554323196 2.5355939865112305 1.1919349431991577 
v 0 -0.4227850139141083 1.0155309438705444 
v -0.00184299994725734 2.5474629402160645 1.1920650005340576 
v -0.0022700000554323196 2.5459699630737305 1.192044973373413 
v 0.00184299994725734 2.5474629402160645 1.1920650005340576 
v 0.0022700000554323196 2.5459699630737305 1.192044973373413 
v 0 -0.4828850030899048 1.0155309438705444 
v 0 -0.46786001324653625 1.0155309438705444 
v -0.00184299994725734 2.5340991020202637 1.191946029663086 
v -0.0022700000554323196 2.5355939865112305 1.1919349431991577 
v -0.07075370848178864 0.9191675782203674 1.219170093536377 
v -0.07217735052108765 0.9189109206199646 1.218450903892517 
v -0.026383468881249428 0.9237868785858154 1.184878945350647 
v -0.025671645998954773 0.9238296151161194 1.182067632675171 
v -0.024959823116660118 0.9238296151161194 1.1840944290161133 
v -0.023061631247401237 0.9239151477813721 1.183767557144165 
v -0.0007578760269097984 0.924385666847229 1.183767557144165 
v -0.03824716806411743 0.9230169653892517 1.1526800394058228 
v -0.0007578760269097984 0.924385666847229 1.1526800394058228 
v 0.02415589429438114 0.9234446883201599 1.182067632675171 
v 0.021545879542827606 0.9236157536506653 1.183767557144165 
v 0.023444071412086487 0.9234874844551086 1.1840944290161133 
v 0.024867715314030647 0.9234018921852112 1.184878945350647 
v 0.07042432576417923 0.9177988767623901 1.218450903892517 
v 0.06900068372488022 0.9180554747581482 1.219170093536377 
v -0.07217735052108765 0.9189109206199646 1.1526800394058228 
v 0.03673141449689865 0.9224609732627869 1.1526800394058228 
v 0.07042432576417923 0.9177988767623901 1.1526800394058228 
v 0.10648997128009796 0.9096295237541199 1.1819369792938232 
v 0.10648997128009796 0.9096295237541199 1.1526800394058228 
v 0.13970832526683807 0.8987228274345398 1.2079576253890991 
v 0.13970832526683807 0.8987228274345398 1.1526800394058228 
v 0.17150305211544037 0.8849931955337524 1.1819369792938232 
v 0.17150305211544037 0.8849931955337524 1.1526800394058228 
v 0.19499316811561584 0.872461199760437 1.1989027261734009 
v 0.19499316811561584 0.872461199760437 1.1526800394058228 
v 0.23627884685993195 0.8461139798164368 1.179158329963684 
v 0.23627884685993195 0.8461139798164368 1.1526800394058228 
v 0.23580430448055267 0.8463706374168396 1.1807273626327515 
v 0.23485520482063293 0.8470122218132019 1.1818715333938599 
v 0.19641682505607605 0.8716912865638733 1.1998833417892456 
v 0.19499316811561584 0.872461199760437 1.200177550315857 
v 0.19356952607631683 0.873231053352356 1.1997525691986084 
v 0.19356952607631683 0.873231053352356 1.1997525691986084 
v 0.17268942296504974 0.8843088746070862 1.1847481727600098 
v 0.17150305211544037 0.8849931955337524 1.1843886375427246 
v 0.17007941007614136 0.8856347799301147 1.184878945350647 
v 0.14113198220729828 0.8982095718383789 1.208676815032959 
v 0.13970832526683807 0.8987228274345398 1.2091344594955444 
v 0.13828468322753906 0.8992788791656494 1.208709478378296 
v 0.13828468322753906 0.8992788791656494 1.208709478378296 
v 0.10767634212970734 0.9092445969581604 1.184878945350647 
v 0.10648997128009796 0.9096295237541199 1.184486746788025 
v 0.10506632924079895 0.9099717140197754 1.185075044631958 
v 0.07184796780347824 0.917585015296936 1.2190065383911133 
v 0.07042432576417923 0.9177988767623901 1.219594955444336 
v 0.06900068372488022 0.9180554747581482 1.219170093536377 
v -0.026858016848564148 0.9330682754516602 1.184878945350647 
v -0.026146193966269493 0.9331110119819641 1.182067632675171 
v -0.025434371083974838 0.9331110119819641 1.1840944290161133 
v -0.023536179214715958 0.9331965446472168 1.183767557144165 
v -0.0007578760269097984 0.9336670637130737 1.183767557144165 
v -0.0007578760269097984 0.9336670637130737 1.1526800394058228 
v 0.037443239241838455 0.9316995739936829 1.1526800394058228 
v 0.024630442261695862 0.9327260851860046 1.182067632675171 
v 0.02225770242512226 0.93289715051651 1.183767557144165 
v 0.023918619379401207 0.9327688813209534 1.1840944290161133 
v 0.025579538196325302 0.9326832890510559 1.184878945350647 
v 0.07208523899316788 0.9269519448280334 1.218450903892517 
v 0.07066159695386887 0.9272086024284363 1.219170093536377 
v -0.03895898908376694 0.9322556257247925 1.1526800394058228 
v 0.07208523899316788 0.9269519448280334 1.1526800394058228 
v 0.10886271297931671 0.9186115264892578 1.1526800394058228 
v 0.10886271297931671 0.9186115264892578 1.1819369792938232 
v 0.14303016662597656 0.907405436038971 1.1526800394058228 
v 0.14303016662597656 0.907405436038971 1.2079576253890991 
v 0.17553670704364777 0.8933336138725281 1.1526800394058228 
v 0.17553670704364777 0.8933336138725281 1.1819369792938232 
v 0.1995013803243637 0.8805022239685059 1.1526800394058228 
v 0.1995013803243637 0.8805022239685059 1.1989027261734009 
v 0.24149887263774872 0.8538128733634949 1.1526800394058228 
v 0.24149887263774872 0.8538128733634949 1.179158329963684 
v 0.24102433025836945 0.8540694713592529 1.1807273626327515 
v 0.2400752305984497 0.8547110557556152 1.1818715333938599 
v 0.20092502236366272 0.8796895742416382 1.1998833417892456 
v 0.1995013803243637 0.8805022239685059 1.200177550315857 
v 0.19831500947475433 0.8812720775604248 1.1997525691986084 
v 0.19831500947475433 0.8812720775604248 1.1997525691986084 
v 0.17696034908294678 0.8926492929458618 1.1847481727600098 
v 0.17553670704364777 0.8933336138725281 1.1843886375427246 
v 0.17411306500434875 0.8940179944038391 1.184878945350647 
v 0.14445380866527557 0.9068921804428101 1.208676815032959 
v 0.14303016662597656 0.907405436038971 1.2091344594955444 
v 0.14160652458667755 0.9079614281654358 1.208709478378296 
v 0.14160652458667755 0.9079614281654358 1.208709478378296 
v 0.11028635501861572 0.9182265996932983 1.184878945350647 
v 0.10886271297931671 0.9185687303543091 1.184486746788025 
v 0.10767634212970734 0.9189537167549133 1.185075044631958 
v 0.07350888848304749 0.9266953468322754 1.2190065383911133 
v 0.07208523899316788 0.9269519448280334 1.219594955444336 
v 0.07066159695386887 0.9272086024284363 1.219170093536377 
v -0.07217735052108765 0.9283206462860107 1.219170093536377 
v -0.07360099256038666 0.9281067848205566 1.218450903892517 
v -0.07360099256038666 0.9281067848205566 1.219594955444336 
v -0.07502463459968567 0.9278929233551025 1.2190065383911133 
v -0.10919209569692612 0.9207928776741028 1.185075044631958 
v -0.11037846654653549 0.920493483543396 1.1819369792938232 
v -0.11037846654653549 0.9204506874084473 1.184486746788025 
v -0.1118021085858345 0.9201084971427917 1.184878945350647 
v -0.14478319883346558 0.9100572466850281 1.2079576253890991 
v -0.14335955679416656 0.9105277061462402 1.208709478378296 
v -0.07217735052108765 0.9283206462860107 1.219170093536377 
v -0.07360099256038666 0.9281067848205566 1.1526800394058228 
v -0.11037846654653549 0.920493483543396 1.1526800394058228 
v -0.14335955679416656 0.9105277061462402 1.208709478378296 
v -0.14478319883346558 0.9100572466850281 1.2091344594955444 
v -0.1462068408727646 0.9095439910888672 1.208676815032959 
v -0.17634063959121704 0.8973969221115112 1.184878945350647 
v -0.17752701044082642 0.8967553377151489 1.1819369792938232 
v -0.17776428163051605 0.8967553377151489 1.1843886375427246 
v -0.17918792366981506 0.8961137533187866 1.1847481727600098 
v -0.20196622610092163 0.8845227360725403 1.1989027261734009 
v -0.20054258406162262 0.8852925896644592 1.1997525691986084 
v -0.14478319883346558 0.9100572466850281 1.1526800394058228 
v -0.17752701044082642 0.8967553377151489 1.1526800394058228 
v -0.20196622610092163 0.8845227360725403 1.1526800394058228 
v -0.24420100450515747 0.8577905893325806 1.179158329963684 
v -0.24420100450515747 0.8577905893325806 1.1526800394058228 
v -0.243726447224617 0.8580472469329834 1.1807273626327515 
v -0.24277736246585846 0.8587315678596497 1.1818715333938599 
v -0.20338986814022064 0.8837100863456726 1.1998833417892456 
v -0.20196622610092163 0.8845227360725403 1.200177550315857 
v -0.20054258406162262 0.8852925896644592 1.1997525691986084 
v -0.07075370848178864 0.9191675782203674 1.219170093536377 
v -0.07217735052108765 0.9189109206199646 1.219594955444336 
v -0.07336372137069702 0.9186970591545105 1.2190065383911133 
v -0.10681935399770737 0.9117680788040161 1.185075044631958 
v -0.10824299603700638 0.9114686846733093 1.1819369792938232 
v -0.10824299603700638 0.9114686846733093 1.184486746788025 
v -0.10966664552688599 0.9110837578773499 1.184878945350647 
v -0.14169862866401672 0.9012891054153442 1.2079576253890991 
v -0.1402749866247177 0.9017595648765564 1.208709478378296 
v -0.10824299603700638 0.9114686846733093 1.1526800394058228 
v -0.14169862866401672 0.9012891054153442 1.1526800394058228 
v -0.17373062670230865 0.8883293867111206 1.1526800394058228 
v -0.17373062670230865 0.8883293867111206 1.1819369792938232 
v -0.19745802879333496 0.8763961791992188 1.1526800394058228 
v -0.19745802879333496 0.8763961791992188 1.1989027261734009 
v -0.23874369263648987 0.8502628207206726 1.1526800394058228 
v -0.23874369263648987 0.8502628207206726 1.179158329963684 
v -0.2382691502571106 0.8505194783210754 1.1807273626327515 
v -0.2375573217868805 0.8512037992477417 1.1818715333938599 
v -0.19888167083263397 0.8755834698677063 1.1998833417892456 
v -0.1976952999830246 0.87635338306427 1.200177550315857 
v -0.19627165794372559 0.877123236656189 1.1997525691986084 
v -0.19627165794372559 0.877123236656189 1.1997525691986084 
v -0.17515426874160767 0.8876878023147583 1.1847481727600098 
v -0.17373062670230865 0.8882865905761719 1.1843886375427246 
v -0.17254425585269928 0.8889281749725342 1.184878945350647 
v -0.14312227070331573 0.9007758498191833 1.208676815032959 
v -0.14169862866401672 0.9012891054153442 1.2091344594955444 
v -0.1402749866247177 0.9017595648765564 1.208709478378296 
v -0.0007578760269097984 0.9336670637130737 1.183767557144165 
v -0.023536179214715958 0.9331965446472168 1.183767557144165 
v -0.023061631247401237 0.9239151477813721 1.183767557144165 
v -0.025434371083974838 0.9331110119819641 1.1840944290161133 
v -0.024959823116660118 0.9238296151161194 1.1840944290161133 
v -0.026858016848564148 0.9330682754516602 1.184878945350647 
v -0.026383468881249428 0.9237868785858154 1.184878945350647 
v -0.07217735052108765 0.9283206462860107 1.219170093536377 
v -0.07075370848178864 0.9191675782203674 1.219170093536377 
v -0.07360099256038666 0.9281067848205566 1.219594955444336 
v -0.07217735052108765 0.9189109206199646 1.219594955444336 
v -0.0007578760269097984 0.924385666847229 1.183767557144165 
v 0.021545879542827606 0.9236157536506653 1.183767557144165 
v 0.02225770242512226 0.93289715051651 1.183767557144165 
v 0.023918619379401207 0.9327688813209534 1.1840944290161133 
v 0.023444071412086487 0.9234874844551086 1.1840944290161133 
v 0.025579538196325302 0.9326832890510559 1.184878945350647 
v 0.024867715314030647 0.9234018921852112 1.184878945350647 
v 0.07066159695386887 0.9272086024284363 1.219170093536377 
v 0.06900068372488022 0.9180554747581482 1.219170093536377 
v 0.07208523899316788 0.9269519448280334 1.219594955444336 
v 0.07042432576417923 0.9177988767623901 1.219594955444336 
v -0.07217735052108765 0.9189109206199646 1.1526800394058228 
v -0.03895898908376694 0.9322556257247925 1.1526800394058228 
v -0.03824716806411743 0.9230169653892517 1.1526800394058228 
v -0.0007578760269097984 0.924385666847229 1.1526800394058228 
v -0.0007578760269097984 0.9336670637130737 1.1526800394058228 
v 0.037443239241838455 0.9316995739936829 1.1526800394058228 
v 0.03673141449689865 0.9224609732627869 1.1526800394058228 
v 0.07042432576417923 0.9177988767623901 1.1526800394058228 
v 0.07208523899316788 0.9269519448280334 1.1526800394058228 
v 0.10648997128009796 0.9096295237541199 1.1526800394058228 
v 0.10886271297931671 0.9186115264892578 1.1526800394058228 
v 0.13970832526683807 0.8987228274345398 1.1526800394058228 
v 0.14303016662597656 0.907405436038971 1.1526800394058228 
v 0.17150305211544037 0.8849931955337524 1.1526800394058228 
v 0.17553670704364777 0.8933336138725281 1.1526800394058228 
v 0.19499316811561584 0.872461199760437 1.1526800394058228 
v 0.1995013803243637 0.8805022239685059 1.1526800394058228 
v 0.23627884685993195 0.8461139798164368 1.1526800394058228 
v 0.24149887263774872 0.8538128733634949 1.1526800394058228 
v -0.07360099256038666 0.9281067848205566 1.1526800394058228 
v -0.10824299603700638 0.9114686846733093 1.1526800394058228 
v -0.11037846654653549 0.920493483543396 1.1526800394058228 
v -0.14169862866401672 0.9012891054153442 1.1526800394058228 
v -0.14478319883346558 0.9100572466850281 1.1526800394058228 
v -0.17373062670230865 0.8883293867111206 1.1526800394058228 
v -0.17752701044082642 0.8967553377151489 1.1526800394058228 
v -0.19745802879333496 0.8763961791992188 1.1526800394058228 
v -0.20196622610092163 0.8845227360725403 1.1526800394058228 
v -0.23874369263648987 0.8502628207206726 1.1526800394058228 
v -0.24420100450515747 0.8577905893325806 1.1526800394058228 
v -0.07360099256038666 0.9281067848205566 1.219594955444336 
v -0.07217735052108765 0.9189109206199646 1.219594955444336 
v -0.07502463459968567 0.9278929233551025 1.2190065383911133 
v -0.07336372137069702 0.9186970591545105 1.2190065383911133 
v -0.10919209569692612 0.9207928776741028 1.185075044631958 
v -0.10681935399770737 0.9117680788040161 1.185075044631958 
v -0.11037846654653549 0.9204506874084473 1.184486746788025 
v -0.10824299603700638 0.9114686846733093 1.184486746788025 
v -0.11037846654653549 0.9204506874084473 1.184486746788025 
v -0.10824299603700638 0.9114686846733093 1.184486746788025 
v -0.1118021085858345 0.9201084971427917 1.184878945350647 
v -0.10966664552688599 0.9110837578773499 1.184878945350647 
v -0.14335955679416656 0.9105277061462402 1.208709478378296 
v -0.1402749866247177 0.9017595648765564 1.208709478378296 
v -0.14478319883346558 0.9100572466850281 1.2091344594955444 
v -0.14169862866401672 0.9012891054153442 1.2091344594955444 
v -0.17776428163051605 0.8967553377151489 1.1843886375427246 
v -0.17373062670230865 0.8882865905761719 1.1843886375427246 
v -0.17918792366981506 0.8961137533187866 1.1847481727600098 
v -0.17515426874160767 0.8876878023147583 1.1847481727600098 
v -0.20054258406162262 0.8852925896644592 1.1997525691986084 
v -0.19627165794372559 0.877123236656189 1.1997525691986084 
v -0.20196622610092163 0.8845227360725403 1.200177550315857 
v -0.1976952999830246 0.87635338306427 1.200177550315857 
v -0.20338986814022064 0.8837100863456726 1.1998833417892456 
v -0.19888167083263397 0.8755834698677063 1.1998833417892456 
v -0.24277736246585846 0.8587315678596497 1.1818715333938599 
v -0.2375573217868805 0.8512037992477417 1.1818715333938599 
v -0.243726447224617 0.8580472469329834 1.1807273626327515 
v -0.2382691502571106 0.8505194783210754 1.1807273626327515 
v -0.14478319883346558 0.9100572466850281 1.2091344594955444 
v -0.14169862866401672 0.9012891054153442 1.2091344594955444 
v -0.1462068408727646 0.9095439910888672 1.208676815032959 
v -0.14312227070331573 0.9007758498191833 1.208676815032959 
v -0.17634063959121704 0.8973969221115112 1.184878945350647 
v -0.17254425585269928 0.8889281749725342 1.184878945350647 
v -0.17776428163051605 0.8967553377151489 1.1843886375427246 
v -0.17373062670230865 0.8882865905761719 1.1843886375427246 
v -0.24420100450515747 0.8577905893325806 1.1526800394058228 
v -0.24420100450515747 0.8577905893325806 1.179158329963684 
v -0.23874369263648987 0.8502628207206726 1.1526800394058228 
v -0.23874369263648987 0.8502628207206726 1.179158329963684 
v -0.2382691502571106 0.8505194783210754 1.1807273626327515 
v -0.243726447224617 0.8580472469329834 1.1807273626327515 
v 0.10648997128009796 0.9096295237541199 1.184486746788025 
v 0.10506632924079895 0.9099717140197754 1.185075044631958 
v 0.10886271297931671 0.9185687303543091 1.184486746788025 
v 0.10767634212970734 0.9189537167549133 1.185075044631958 
v 0.07184796780347824 0.917585015296936 1.2190065383911133 
v 0.07350888848304749 0.9266953468322754 1.2190065383911133 
v 0.07042432576417923 0.9177988767623901 1.219594955444336 
v 0.07208523899316788 0.9269519448280334 1.219594955444336 
v 0.13970832526683807 0.8987228274345398 1.2091344594955444 
v 0.14303016662597656 0.907405436038971 1.2091344594955444 
v 0.13828468322753906 0.8992788791656494 1.208709478378296 
v 0.14160652458667755 0.9079614281654358 1.208709478378296 
v 0.10767634212970734 0.9092445969581604 1.184878945350647 
v 0.11028635501861572 0.9182265996932983 1.184878945350647 
v 0.10648997128009796 0.9096295237541199 1.184486746788025 
v 0.10886271297931671 0.9185687303543091 1.184486746788025 
v 0.24102433025836945 0.8540694713592529 1.1807273626327515 
v 0.2400752305984497 0.8547110557556152 1.1818715333938599 
v 0.23485520482063293 0.8470122218132019 1.1818715333938599 
v 0.19641682505607605 0.8716912865638733 1.1998833417892456 
v 0.20092502236366272 0.8796895742416382 1.1998833417892456 
v 0.19499316811561584 0.872461199760437 1.200177550315857 
v 0.1995013803243637 0.8805022239685059 1.200177550315857 
v 0.19356952607631683 0.873231053352356 1.1997525691986084 
v 0.19831500947475433 0.8812720775604248 1.1997525691986084 
v 0.17268942296504974 0.8843088746070862 1.1847481727600098 
v 0.17696034908294678 0.8926492929458618 1.1847481727600098 
v 0.17150305211544037 0.8849931955337524 1.1843886375427246 
v 0.17553670704364777 0.8933336138725281 1.1843886375427246 
v 0.23580430448055267 0.8463706374168396 1.1807273626327515 
v 0.17150305211544037 0.8849931955337524 1.1843886375427246 
v 0.17007941007614136 0.8856347799301147 1.184878945350647 
v 0.17553670704364777 0.8933336138725281 1.1843886375427246 
v 0.17411306500434875 0.8940179944038391 1.184878945350647 
v 0.14113198220729828 0.8982095718383789 1.208676815032959 
v 0.14445380866527557 0.9068921804428101 1.208676815032959 
v 0.13970832526683807 0.8987228274345398 1.2091344594955444 
v 0.14303016662597656 0.907405436038971 1.2091344594955444 
v 0.24149887263774872 0.8538128733634949 1.1526800394058228 
v 0.24149887263774872 0.8538128733634949 1.179158329963684 
v 0.23627884685993195 0.8461139798164368 1.1526800394058228 
v 0.23627884685993195 0.8461139798164368 1.179158329963684 
v 0.23580430448055267 0.8463706374168396 1.1807273626327515 
v 0.24102433025836945 0.8540694713592529 1.1807273626327515 
vn 0 0 0 
vn 0 0 0 
vn 0 0 0 
vn 0 0 0 
vn 0 0 0 
vn 0 0 0 
vn 0 0 0 
vn 0 0 0 
vn 0 0 0 
vn 0 0 0 
vn 0 0 0 
vn 0 0 0 
vn 0 0 0 
vn 0.1280297040939331 -0.991767942905426 -0.002184694167226553 
vn 0.15792569518089294 -0.9874485731124878 -0.002184694167226553 
vn 0.0980169028043747 -0.9951823353767395 -0.002184694167226553 
vn 0.06791467219591141 -0.9976887702941895 0.002184694167226553 
vn 0.05283859372138977 -0.9986006617546082 0.002184694167226553 
vn 0.037749744951725006 -0.999265730381012 0.006554040592163801 
vn -0.0075516714714467525 -0.9999499917030334 0.006554040592163801 
vn 0.08297525346279144 -0.9965491890907288 0.002184694167226553 
vn -0.0075516714714467525 -0.9999499917030334 0.006554040592163801 
vn -0.08297525346279144 -0.9965491890907288 0.002184694167226553 
vn -0.05283758416771889 -0.99858158826828 0.006554040592163801 
vn -0.06791467219591141 -0.9976887702941895 -0.002184694167226553 
vn -0.11303620040416718 -0.9935884475708008 -0.002184694167226553 
vn -0.18025460839271545 -0.9836175441741943 -0.002184694167226553 
vn -0.1429940164089203 -0.9897211194038391 -0.002184694167226553 
vn 0.15792569518089294 -0.9874485731124878 -0.002184694167226553 
vn -0.0980169028043747 -0.9951823353767395 0.002184694167226553 
vn -0.17282135784626007 -0.9849507808685303 -0.002184694167226553 
vn -0.2685312330722809 -0.963268518447876 0.002184694167226553 
vn -0.2685312330722809 -0.963268518447876 0.002184694167226553 
vn -0.354604035615921 -0.935014009475708 0.002184694167226553 
vn -0.354604035615921 -0.935014009475708 0.002184694167226553 
vn -0.4377666711807251 -0.8990859389305115 0.002184694167226553 
vn -0.4309644401073456 -0.9023662805557251 0.002184694167226553 
vn -0.5043525099754333 -0.8634950518608093 0.002184694167226553 
vn -0.5043525099754333 -0.8634950518608093 0.002184694167226553 
vn -0.5365904569625854 -0.8438400030136108 0.002184694167226553 
vn -0.5365904569625854 -0.8438400030136108 0.002184694167226553 
vn -0.5365904569625854 -0.8438400030136108 0.002184694167226553 
vn -0.5365904569625854 -0.8438400030136108 0.002184694167226553 
vn -0.5237845182418823 -0.8518480062484741 0.002184694167226553 
vn -0.49781718850135803 -0.8672792315483093 -0.002184694167226553 
vn -0.47804227471351624 -0.878334105014801 0.002184694167226553 
vn -0.47804227471351624 -0.878334105014801 0.002184694167226553 
vn -0.46472206711769104 -0.8854539394378662 0.002184694167226553 
vn -0.4445439279079437 -0.8957543969154358 -0.002184694167226553 
vn -0.4104118347167969 -0.9118976593017578 0.002184694167226553 
vn -0.38964858651161194 -0.9209610223770142 0.002184694167226553 
vn -0.36165499687194824 -0.9323094487190247 0.002184694167226553 
vn -0.32620200514793396 -0.9452975392341614 0.002184694167226553 
vn -0.32620200514793396 -0.9452975392341614 0.002184694167226553 
vn -0.297502338886261 -0.9547185897827148 0.002184694167226553 
vn -0.2612491250038147 -0.9652689099311829 0.002184694167226553 
vn -0.23197589814662933 -0.9727190732955933 0.002184694167226553 
vn -0.20988060534000397 -0.9777246117591858 0.002184694167226553 
vn -0.18767757713794708 -0.9822282791137695 -0.002184694167226553 
vn -0.1429940164089203 -0.9897211194038391 -0.002184694167226553 
vn -0.0980169028043747 0.9951823353767395 0.002184694167226553 
vn -0.06791467219591141 0.9976887702941895 -0.002184694167226553 
vn -0.05283859372138977 0.9986006617546082 0.002184694167226553 
vn -0.037749744951725006 0.999265730381012 -0.006554040592163801 
vn 0.0075516714714467525 0.9999499917030334 -0.006554040592163801 
vn 0.0075516714714467525 0.9999499917030334 -0.006554040592163801 
vn 0.0980169028043747 0.9951823353767395 -0.002184694167226553 
vn 0.08297525346279144 0.9965491890907288 -0.002184694167226553 
vn 0.05283758416771889 0.99858158826828 -0.006554040592163801 
vn 0.06791467219591141 0.9976887702941895 -0.002184694167226553 
vn 0.11303620040416718 0.9935884475708008 0.002184694167226553 
vn 0.18025460839271545 0.9836175441741943 0.002184694167226553 
vn 0.1429940164089203 0.9897211194038391 0.002184694167226553 
vn -0.08297525346279144 0.9965491890907288 -0.002184694167226553 
vn 0.17282135784626007 0.9849507808685303 0.002184694167226553 
vn 0.2685312330722809 0.963268518447876 -0.002184694167226553 
vn 0.2685312330722809 0.963268518447876 -0.002184694167226553 
vn 0.354604035615921 0.935014009475708 -0.002184694167226553 
vn 0.354604035615921 0.935014009475708 -0.002184694167226553 
vn 0.4309644401073456 0.9023662805557251 -0.002184694167226553 
vn 0.4377666711807251 0.8990859389305115 -0.002184694167226553 
vn 0.5043525099754333 0.8634950518608093 -0.002184694167226553 
vn 0.5043525099754333 0.8634950518608093 -0.002184694167226553 
vn 0.5365904569625854 0.8438400030136108 -0.002184694167226553 
vn 0.5365904569625854 0.8438400030136108 -0.002184694167226553 
vn 0.5365904569625854 0.8438400030136108 -0.002184694167226553 
vn 0.5365904569625854 0.8438400030136108 -0.002184694167226553 
vn 0.5237845182418823 0.8518480062484741 -0.002184694167226553 
vn 0.49781718850135803 0.8672792315483093 0.002184694167226553 
vn 0.47804227471351624 0.878334105014801 -0.002184694167226553 
vn 0.47804227471351624 0.878334105014801 -0.002184694167226553 
vn 0.46472206711769104 0.8854539394378662 -0.002184694167226553 
vn 0.4445439279079437 0.8957543969154358 0.002184694167226553 
vn 0.4104118347167969 0.9118976593017578 -0.002184694167226553 
vn 0.38964858651161194 0.9209610223770142 -0.002184694167226553 
vn 0.36165499687194824 0.9323094487190247 -0.002184694167226553 
vn 0.32620200514793396 0.9452975392341614 -0.002184694167226553 
vn 0.32620200514793396 0.9452975392341614 -0.002184694167226553 
vn 0.297502338886261 0.9547185897827148 -0.002184694167226553 
vn 0.2612491250038147 0.9652689099311829 -0.002184694167226553 
vn 0.23197589814662933 0.9727190732955933 -0.002184694167226553 
vn 0.20988060534000397 0.9777246117591858 -0.002184694167226553 
vn 0.18767757713794708 0.9822282791137695 -0.002184694167226553 
vn 0.1429940164089203 0.9897211194038391 0.002184694167226553 
vn -0.12053639441728592 0.9927064776420593 0.002184694167226553 
vn -0.15792569518089294 0.9874485731124878 0.002184694167226553 
vn -0.16537824273109436 0.986227810382843 0.002184694167226553 
vn -0.18767757713794708 0.9822282791137695 -0.002184694167226553 
vn -0.20988060534000397 0.9777246117591858 -0.002184694167226553 
vn -0.2466406375169754 0.969104528427124 -0.002184694167226553 
vn -0.2466406375169754 0.969104528427124 -0.002184694167226553 
vn -0.283049076795578 0.9591029286384583 -0.002184694167226553 
vn -0.333331435918808 0.9428071975708008 -0.002184694167226553 
vn -0.3047037422657013 0.9524446725845337 -0.002184694167226553 
vn -0.12053639441728592 0.9927064776420593 0.002184694167226553 
vn -0.15792569518089294 0.9874485731124878 0.002184694167226553 
vn -0.2466406375169754 0.969104528427124 -0.002184694167226553 
vn -0.3047037422657013 0.9524446725845337 -0.002184694167226553 
vn -0.333331435918808 0.9428071975708008 -0.002184694167226553 
vn -0.36165499687194824 0.9323094487190247 -0.002184694167226553 
vn -0.38268253207206726 0.9238772988319397 -0.002184694167226553 
vn -0.4104118347167969 0.9118976593017578 -0.002184694167226553 
vn -0.4104118347167969 0.9118976593017578 0.002184694167226553 
vn -0.4377666711807251 0.8990859389305115 -0.002184694167226553 
vn -0.49125343561172485 0.8710139393806458 -0.002184694167226553 
vn -0.45802199840545654 0.8889381885528564 -0.002184694167226553 
vn -0.333331435918808 0.9428071975708008 -0.002184694167226553 
vn -0.4104118347167969 0.9118976593017578 -0.002184694167226553 
vn -0.49125343561172485 0.8710139393806458 -0.002184694167226553 
vn -0.5365904569625854 0.8438400030136108 -0.002184694167226553 
vn -0.5365904569625854 0.8438400030136108 -0.002184694167226553 
vn -0.5365904569625854 0.8438400030136108 -0.002184694167226553 
vn -0.5365904569625854 0.8438400030136108 -0.002184694167226553 
vn -0.5237845182418823 0.8518480062484741 -0.002184694167226553 
vn -0.49125343561172485 0.8710139393806458 0.002184694167226553 
vn -0.45802199840545654 0.8889381885528564 -0.002184694167226553 
vn 0.1280297040939331 -0.991767942905426 -0.002184694167226553 
vn 0.16537824273109436 -0.986227810382843 0.002184694167226553 
vn 0.18767757713794708 -0.9822282791137695 0.002184694167226553 
vn 0.20988060534000397 -0.9777246117591858 0.002184694167226553 
vn 0.2466406375169754 -0.969104528427124 0.002184694167226553 
vn 0.2466406375169754 -0.969104528427124 0.002184694167226553 
vn 0.283049076795578 -0.9591029286384583 0.002184694167226553 
vn 0.333331435918808 -0.9428071975708008 0.002184694167226553 
vn 0.3047037422657013 -0.9524446725845337 0.002184694167226553 
vn 0.2466406375169754 -0.969104528427124 0.002184694167226553 
vn 0.333331435918808 -0.9428071975708008 0.002184694167226553 
vn 0.4104118347167969 -0.9118976593017578 0.002184694167226553 
vn 0.4104118347167969 -0.9118976593017578 0.002184694167226553 
vn 0.49125343561172485 -0.8710139393806458 0.002184694167226553 
vn 0.49125343561172485 -0.8710139393806458 0.002184694167226553 
vn 0.5365904569625854 -0.8438400030136108 0.002184694167226553 
vn 0.5365904569625854 -0.8438400030136108 0.002184694167226553 
vn 0.5365904569625854 -0.8438400030136108 0.002184694167226553 
vn 0.5365904569625854 -0.8438400030136108 0.002184694167226553 
vn 0.5237845182418823 -0.8518480062484741 0.002184694167226553 
vn 0.49125343561172485 -0.8710139393806458 -0.002184694167226553 
vn 0.45802199840545654 -0.8889381885528564 0.002184694167226553 
vn 0.45802199840545654 -0.8889381885528564 0.002184694167226553 
vn 0.4377666711807251 -0.8990859389305115 0.002184694167226553 
vn 0.4104118347167969 -0.9118976593017578 0.002184694167226553 
vn 0.38268253207206726 -0.9238772988319397 0.002184694167226553 
vn 0.36165499687194824 -0.9323094487190247 0.002184694167226553 
vn 0.333331435918808 -0.9428071975708008 0.002184694167226553 
vn 0.3047037422657013 -0.9524446725845337 0.002184694167226553 
vn 0 0 1 
vn 0.09133139997720718 0.007373033091425896 0.9957932829856873 
vn 0.09133139997720718 0.007373033091425896 0.9957932829856873 
vn 0.32151928544044495 0.015030751004815102 0.946783721446991 
vn 0.3173760175704956 0.015004639513790607 0.9481810927391052 
vn 0.5249364376068115 0.045086830854415894 0.8499464392662048 
vn 0.5286577939987183 0.0450974702835083 0.8476362228393555 
vn 0.4436710476875305 0.05255929380655289 0.8946471214294434 
vn 0.447598397731781 0.05259757861495018 0.8926864862442017 
vn 0.2723431885242462 0.04484514892101288 0.961154580116272 
vn 0.2723431885242462 0.04484514892101288 0.961154580116272 
vn 0 0 1 
vn -0.09133139997720718 0.007373033091425896 0.9957932829856873 
vn -0.09590646624565125 0.003721607616171241 0.9953833818435669 
vn -0.3169330656528473 0.02249649539589882 0.9481810927391052 
vn -0.3169330656528473 0.02249649539589882 0.9481810927391052 
vn -0.5242391228675842 0.05257805436849594 0.8499464392662048 
vn -0.5283247232437134 0.04884535074234009 0.8476362228393555 
vn -0.44220152497291565 0.06375177949666977 0.8946471214294434 
vn -0.4466570019721985 0.06006952375173569 0.8926864862442017 
vn -0.2717081308364868 0.0485447458922863 0.961154580116272 
vn -0.2717081308364868 0.0485447458922863 0.961154580116272 
vn 2.0682311115474694e-13 4.2775797696334704e-26 -1 
vn 2.0682311115474694e-13 4.2775797696334704e-26 -1 
vn 2.0682311115474694e-13 4.2775797696334704e-26 -1 
vn 2.0682311115474694e-13 4.2775797696334704e-26 -1 
vn 2.0682311115474694e-13 4.2775797696334704e-26 -1 
vn 2.0682311115474694e-13 4.2775797696334704e-26 -1 
vn 2.0682311115474694e-13 4.2775797696334704e-26 -1 
vn 2.0682311115474694e-13 4.2775797696334704e-26 -1 
vn 2.0682311115474694e-13 4.2775797696334704e-26 -1 
vn 2.0682311115474694e-13 4.2775797696334704e-26 -1 
vn 2.0682311115474694e-13 4.2775797696334704e-26 -1 
vn 2.0682311115474694e-13 4.2775797696334704e-26 -1 
vn 2.0682311115474694e-13 4.2775797696334704e-26 -1 
vn 2.0682311115474694e-13 4.2775797696334704e-26 -1 
vn 2.0682311115474694e-13 4.2775797696334704e-26 -1 
vn 2.0682311115474694e-13 4.2775797696334704e-26 -1 
vn 2.0682311115474694e-13 4.2775797696334704e-26 -1 
vn 2.0682311115474694e-13 4.2775797696334704e-26 -1 
vn 2.0682311115474694e-13 4.2775797696334704e-26 -1 
vn 2.0682311115474694e-13 4.2775797696334704e-26 -1 
vn 2.0682311115474694e-13 4.2775797696334704e-26 -1 
vn 2.0682311115474694e-13 4.2775797696334704e-26 -1 
vn 2.0682311115474694e-13 4.2775797696334704e-26 -1 
vn 2.0682311115474694e-13 4.2775797696334704e-26 -1 
vn 2.0682311115474694e-13 4.2775797696334704e-26 -1 
vn 2.0682311115474694e-13 4.2775797696334704e-26 -1 
vn 2.0682311115474694e-13 4.2775797696334704e-26 -1 
vn 2.0682311115474694e-13 4.2775797696334704e-26 -1 
vn 2.0682311115474694e-13 4.2775797696334704e-26 -1 
vn 2.0682311115474694e-13 4.2775797696334704e-26 -1 
vn -0.39068591594696045 -0.05997367948293686 0.9185682535171509 
vn -0.39068591594696045 -0.05997367948293686 0.9185682535171509 
vn -0.5462852716445923 -0.10482294112443924 0.8310141563415527 
vn -0.5492563843727112 -0.10853385925292969 0.8285757899284363 
vn -0.5432463884353638 -0.1195775717496872 0.8310141563415527 
vn -0.5461373925209045 -0.12327256798744202 0.8285757899284363 
vn -0.3863888084888458 -0.10060781985521317 0.916832447052002 
vn -0.3863888084888458 -0.10060781985521317 0.916832447052002 
vn 0.25473520159721375 0.06695814430713654 0.9646899104118347 
vn 0.25473520159721375 0.06695814430713654 0.9646899104118347 
vn 0.4143708050251007 0.11881891638040543 0.9023185968399048 
vn 0.4184322953224182 0.11893913149833679 0.9004265069961548 
vn 0.42639291286468506 0.13339997828006744 0.8946471214294434 
vn 0.42639291286468506 0.13339997828006744 0.8946471214294434 
vn 0.27216851711273193 0.09594758599996567 0.9574540853500366 
vn 0.27216851711273193 0.09594758599996567 0.9574540853500366 
vn 0.2137567549943924 0.09462377429008484 0.9722933769226074 
vn 0.2137567549943924 0.09462377429008484 0.9722933769226074 
vn 0.34910643100738525 0.16752362251281738 0.9219872951507568 
vn 0.35037586092948914 0.17409594357013702 0.9202865362167358 
vn 0.3568125367164612 0.18792285025119781 0.9150791168212891 
vn 0.361155241727829 0.18824121356010437 0.913308322429657 
vn 0.033425770699977875 0.020696360617876053 0.9992268681526184 
vn 0.03192660212516785 0.014214638620615005 0.999389111995697 
vn -0.24076418578624725 -0.1433490812778473 0.9599394202232361 
vn -0.2418012022972107 -0.14971697330474854 0.9587059020996094 
vn -0.4519563317298889 -0.31161096692085266 0.8358433246612549 
vn -0.44984865188598633 -0.30822059512138367 0.838234007358551 
vn -0.6913485527038574 -0.5041581988334656 0.5175535082817078 
vn -0.6913485527038574 -0.5041581988334656 0.5175535082817078 
vn -0.28098064661026 -0.09604214131832123 0.9548956751823425 
vn -0.28098064661026 -0.09604214131832123 0.9548956751823425 
vn -0.4205641448497772 -0.16197724640369415 0.8926864862442017 
vn -0.42331501841545105 -0.16565701365470886 0.8907088041305542 
vn -0.4219265282154083 -0.17934684455394745 0.888714075088501 
vn -0.4245837926864624 -0.18299579620361328 0.8867024183273315 
vn -0.2819637358188629 -0.12745563685894012 0.9509214162826538 
vn -0.2819637358188629 -0.12745563685894012 0.9509214162826538 
vn -0.8099018931388855 -0.5865612626075745 0.002184694167226553 
vn -0.7989541888237 -0.5823401212692261 0.15017375349998474 
vn -0.8099018931388855 -0.5865612626075745 0.002184694167226553 
vn -0.7989541888237 -0.5823401212692261 0.15017375349998474 
vn -0.6913485527038574 -0.5041581988334656 0.5175535082817078 
vn -0.6913485527038574 -0.5041581988334656 0.5175535082817078 
vn 0.3854224681854248 -0.10424856096506119 0.916832447052002 
vn 0.543538510799408 -0.1342686116695404 0.8285757899284363 
vn 0.3854224681854248 -0.10424856096506119 0.916832447052002 
vn 0.5398091077804565 -0.13424450159072876 0.8310141563415527 
vn 0.5485138297080994 -0.11222632229328156 0.8285757899284363 
vn 0.5448157787322998 -0.11221054941415787 0.8310141563415527 
vn 0.3894732594490051 -0.06740099936723709 0.9185682535171509 
vn 0.3894732594490051 -0.06740099936723709 0.9185682535171509 
vn -0.2708946764469147 0.09948723018169403 0.9574540853500366 
vn -0.2708946764469147 0.09948723018169403 0.9574540853500366 
vn -0.4228864908218384 0.144130140542984 0.8946471214294434 
vn -0.4228864908218384 0.144130140542984 0.8946471214294434 
vn -0.4152035415172577 0.12976181507110596 0.9004265069961548 
vn -0.41223400831222534 0.12603259086608887 0.9023185968399048 
vn -0.2527192533016205 0.07420507073402405 0.9646899104118347 
vn -0.2527192533016205 0.07420507073402405 0.9646899104118347 
vn 0.709237813949585 -0.48268115520477295 0.5138099193572998 
vn 0.4603349566459656 -0.29909467697143555 0.8358433246612549 
vn 0.4561361074447632 -0.2988370656967163 0.838234007358551 
vn 0.24076418578624725 -0.1433490812778473 0.9599394202232361 
vn 0.24076418578624725 -0.1433490812778473 0.9599394202232361 
vn -0.033425770699977875 0.020696360617876053 0.9992268681526184 
vn -0.03192660212516785 0.014214638620615005 0.999389111995697 
vn -0.35761508345603943 0.1948828250169754 0.913308322429657 
vn -0.3550451695919037 0.19124092161655426 0.9150791168212891 
vn -0.3486871123313904 0.17745403945446014 0.9202865362167358 
vn -0.3440703749656677 0.17763741314411163 0.9219872951507568 
vn -0.21061408519744873 0.10142640024423599 0.9722933769226074 
vn -0.21061408519744873 0.10142640024423599 0.9722933769226074 
vn 0.7107924222946167 -0.4763532876968384 0.5175535082817078 
vn 0.2771400809288025 -0.1376294046640396 0.9509214162826538 
vn 0.4215489327907562 -0.18988248705863953 0.8867024183273315 
vn 0.2771400809288025 -0.1376294046640396 0.9509214162826538 
vn 0.41738590598106384 -0.18967418372631073 0.888714075088501 
vn 0.41906508803367615 -0.1761315017938614 0.8907088041305542 
vn 0.4149168133735657 -0.17593993246555328 0.8926864862442017 
vn 0.2784574627876282 -0.1031293272972107 0.9548956751823425 
vn 0.2784574627876282 -0.1031293272972107 0.9548956751823425 
vn 0.8272483348846436 -0.5618321895599365 0.002184694167226553 
vn 0.8194214701652527 -0.5543243885040283 0.1458524912595749 
vn 0.8272483348846436 -0.5618321895599365 0.002184694167226553 
vn 0.8184852004051208 -0.5545536875724792 0.15017375349998474 
vn 0.7107924222946167 -0.4763532876968384 0.5175535082817078 
vn 0.709237813949585 -0.48268115520477295 0.5138099193572998 
s on 
f 14//14 15//15 16//16 
f 15//15 17//17 16//16 
f 16//16 17//17 18//18 
f 17//17 17//17 18//18 
f 18//18 17//17 19//19 
f 17//17 17//17 19//19 
f 19//19 17//17 20//20 
f 17//17 21//21 20//20 
f 20//20 21//21 20//20 
f 21//21 22//22 20//20 
f 20//20 22//22 20//20 
f 22//22 23//23 20//20 
f 20//20 23//23 24//24 
f 23//23 23//23 24//24 
f 24//24 23//23 25//25 
f 23//23 23//23 25//25 
f 25//25 23//23 26//26 
f 23//23 27//27 26//26 
f 26//26 27//27 28//28 
f 27//27 28//28 28//28 
f 28//28 28//28 21//21 
f 28//28 21//21 21//21 
f 21//21 21//21 29//29 
f 21//21 17//17 29//29 
f 29//29 17//17 15//15 
f 17//17 15//15 15//15 
f 15//15 15//15 22//22 
f 15//15 22//22 22//22 
f 22//22 22//22 23//23 
f 22//22 30//30 23//23 
f 23//23 30//30 27//27 
f 30//30 31//31 27//27 
f 27//27 31//31 32//32 
f 31//31 33//33 32//32 
f 32//32 33//33 34//34 
f 33//33 35//35 34//34 
f 34//34 35//35 36//36 
f 35//35 37//37 36//36 
f 36//36 37//37 38//38 
f 37//37 39//39 38//38 
f 38//38 39//39 40//40 
f 39//39 41//41 40//40 
f 40//40 41//41 41//41 
f 41//41 40//40 41//41 
f 41//41 40//40 40//40 
f 40//40 42//42 40//40 
f 40//40 42//42 38//38 
f 42//42 43//43 38//38 
f 38//38 43//43 38//38 
f 43//43 44//44 38//38 
f 38//38 44//44 38//38 
f 44//44 45//45 38//38 
f 38//38 45//45 46//46 
f 45//45 46//46 46//46 
f 46//46 46//46 47//47 
f 46//46 47//47 47//47 
f 47//47 47//47 38//38 
f 47//47 48//48 38//38 
f 38//38 48//48 36//36 
f 48//48 49//49 36//36 
f 36//36 49//49 36//36 
f 49//49 50//50 36//36 
f 36//36 50//50 34//34 
f 50//50 51//51 34//34 
f 34//34 51//51 34//34 
f 51//51 52//52 34//34 
f 34//34 52//52 53//53 
f 52//52 53//53 53//53 
f 53//53 53//53 54//54 
f 53//53 54//54 54//54 
f 54//54 54//54 34//34 
f 54//54 55//55 34//34 
f 34//34 55//55 32//32 
f 55//55 56//56 32//32 
f 32//32 56//56 32//32 
f 56//56 57//57 32//32 
f 32//32 57//57 27//27 
f 57//57 58//58 27//27 
f 27//27 58//58 27//27 
f 58//58 59//59 27//27 
f 27//27 59//59 60//60 
f 59//59 60//60 60//60 
f 60//60 60//60 61//61 
f 60//60 61//61 61//61 
f 61//61 61//61 62//62 
f 61//61 63//63 62//62 
f 62//62 63//63 62//62 
f 63//63 64//64 62//62 
f 62//62 64//64 62//62 
f 64//64 65//65 62//62 
f 62//62 65//65 66//66 
f 65//65 65//65 66//66 
f 66//66 65//65 67//67 
f 65//65 65//65 67//67 
f 67//67 65//65 68//68 
f 65//65 69//69 68//68 
f 68//68 69//69 68//68 
f 69//69 70//70 68//68 
f 68//68 70//70 68//68 
f 70//70 71//71 68//68 
f 68//68 71//71 72//72 
f 71//71 73//73 72//72 
f 72//72 73//73 73//73 
f 73//73 62//62 73//73 
f 73//73 62//62 62//62 
f 62//62 66//66 62//62 
f 62//62 66//66 74//74 
f 66//66 74//74 74//74 
f 74//74 74//74 67//67 
f 74//74 67//67 67//67 
f 67//67 67//67 75//75 
f 67//67 68//68 75//75 
f 75//75 68//68 75//75 
f 68//68 72//72 75//75 
f 75//75 72//72 76//76 
f 72//72 77//77 76//76 
f 76//76 77//77 78//78 
f 77//77 79//79 78//78 
f 78//78 79//79 80//80 
f 79//79 81//81 80//80 
f 80//80 81//81 82//82 
f 81//81 83//83 82//82 
f 82//82 83//83 84//84 
f 83//83 83//83 84//84 
f 84//84 83//83 85//85 
f 83//83 83//83 85//85 
f 85//85 83//83 86//86 
f 83//83 83//83 86//86 
f 86//86 83//83 87//87 
f 83//83 83//83 87//87 
f 87//87 83//83 88//88 
f 83//83 83//83 88//88 
f 88//88 83//83 89//89 
f 83//83 90//90 89//89 
f 89//89 90//90 90//90 
f 90//90 91//91 90//90 
f 90//90 91//91 91//91 
f 91//91 83//83 91//91 
f 91//91 83//83 92//92 
f 83//83 81//81 92//92 
f 92//92 81//81 93//93 
f 81//81 81//81 93//93 
f 93//93 81//81 94//94 
f 81//81 79//79 94//94 
f 94//94 79//79 95//95 
f 79//79 79//79 95//95 
f 95//95 79//79 96//96 
f 79//79 97//97 96//96 
f 96//96 97//97 97//97 
f 97//97 98//98 97//97 
f 97//97 98//98 98//98 
f 98//98 79//79 98//98 
f 98//98 79//79 99//99 
f 79//79 77//77 99//99 
f 99//99 77//77 100//100 
f 77//77 77//77 100//100 
f 100//100 77//77 101//101 
f 77//77 72//72 101//101 
f 101//101 72//72 102//102 
f 72//72 72//72 102//102 
f 102//102 72//72 103//103 
f 72//72 104//104 103//103 
f 103//103 104//104 104//104 
f 104//104 105//105 104//104 
f 104//104 105//105 105//105 
f 105//105 106//106 105//105 
f 105//105 106//106 107//107 
f 106//106 106//106 107//107 
f 107//107 106//106 108//108 
f 106//106 106//106 108//108 
f 108//108 106//106 109//109 
f 106//106 110//110 109//109 
f 109//109 110//110 111//111 
f 110//110 110//110 111//111 
f 111//111 110//110 112//112 
f 110//110 113//113 112//112 
f 112//112 113//113 114//114 
f 113//113 114//114 114//114 
f 114//114 114//114 115//115 
f 114//114 115//115 115//115 
f 115//115 115//115 106//106 
f 115//115 61//61 106//106 
f 106//106 61//61 106//106 
f 61//61 62//62 106//106 
f 106//106 62//62 106//106 
f 62//62 74//74 106//106 
f 106//106 74//74 106//106 
f 74//74 116//116 106//106 
f 106//106 116//116 110//110 
f 116//116 117//117 110//110 
f 110//110 117//117 113//113 
f 117//117 113//113 113//113 
f 113//113 113//113 118//118 
f 113//113 118//118 118//118 
f 118//118 118//118 119//119 
f 118//118 113//113 119//119 
f 119//119 113//113 120//120 
f 113//113 113//113 120//120 
f 120//120 113//113 121//121 
f 113//113 122//122 121//121 
f 121//121 122//122 123//123 
f 122//122 122//122 123//123 
f 123//123 122//122 124//124 
f 122//122 125//125 124//124 
f 124//124 125//125 126//126 
f 125//125 126//126 126//126 
f 126//126 126//126 117//117 
f 126//126 117//117 117//117 
f 117//117 117//117 113//113 
f 117//117 127//127 113//113 
f 113//113 127//127 122//122 
f 127//127 128//128 122//122 
f 122//122 128//128 125//125 
f 128//128 129//129 125//125 
f 125//125 129//129 130//130 
f 129//129 131//131 130//130 
f 130//130 131//131 131//131 
f 131//131 130//130 131//131 
f 131//131 130//130 130//130 
f 130//130 132//132 130//130 
f 130//130 132//132 125//125 
f 132//132 133//133 125//125 
f 125//125 133//133 125//125 
f 133//133 134//134 125//125 
f 125//125 134//134 125//125 
f 134//134 135//135 125//125 
f 125//125 135//135 136//136 
f 135//135 136//136 136//136 
f 136//136 136//136 137//137 
f 136//136 137//137 137//137 
f 137//137 137//137 15//15 
f 137//137 138//138 15//15 
f 15//15 138//138 15//15 
f 138//138 139//139 15//15 
f 15//15 139//139 15//15 
f 139//139 140//140 15//15 
f 15//15 140//140 141//141 
f 140//140 142//142 141//141 
f 141//141 142//142 141//141 
f 142//142 143//143 141//141 
f 141//141 143//143 144//144 
f 143//143 145//145 144//144 
f 144//144 145//145 145//145 
f 145//145 29//29 145//145 
f 145//145 29//29 29//29 
f 29//29 15//15 29//29 
f 29//29 15//15 146//146 
f 15//15 141//141 146//146 
f 146//146 141//141 147//147 
f 141//141 144//144 147//147 
f 147//147 144//144 148//148 
f 144//144 149//149 148//148 
f 148//148 149//149 150//150 
f 149//149 151//151 150//150 
f 150//150 151//151 152//152 
f 151//151 151//151 152//152 
f 152//152 151//151 153//153 
f 151//151 151//151 153//153 
f 153//153 151//151 154//154 
f 151//151 151//151 154//154 
f 154//154 151//151 155//155 
f 151//151 151//151 155//155 
f 155//155 151//151 156//156 
f 151//151 151//151 156//156 
f 156//156 151//151 157//157 
f 151//151 158//158 157//157 
f 157//157 158//158 158//158 
f 158//158 159//159 158//158 
f 158//158 159//159 159//159 
f 159//159 151//151 159//159 
f 159//159 151//151 160//160 
f 151//151 149//149 160//160 
f 160//160 149//149 161//161 
f 149//149 149//149 161//161 
f 161//161 149//149 162//162 
f 149//149 144//144 162//162 
f 162//162 144//144 163//163 
f 144//144 144//144 163//163 
f 163//163 144//144 164//164 
f 144//144 165//165 164//164 
f 164//164 165//165 165//165 
f 165//165 166//166 165//165 
f 165//165 166//166 166//166 
f 166//166 167//167 166//166 
f 166//166 167//167 168//168 
f 167//167 169//169 168//168 
f 168//168 169//169 170//170 
f 169//169 171//171 170//170 
f 170//170 171//171 172//172 
f 171//171 173//173 172//172 
f 172//172 173//173 174//174 
f 173//173 175//175 174//174 
f 174//174 175//175 176//176 
f 175//175 176//176 176//176 
f 176//176 176//176 168//168 
f 176//176 168//168 168//168 
f 168//168 168//168 166//166 
f 168//168 177//177 166//166 
f 166//166 177//177 166//166 
f 177//177 178//178 166//166 
f 166//166 178//178 179//179 
f 178//178 178//178 179//179 
f 179//179 178//178 180//180 
f 178//178 181//181 180//180 
f 180//180 181//181 182//182 
f 181//181 183//183 182//182 
f 182//182 183//183 184//184 
f 183//183 185//185 184//184 
f 184//184 185//185 186//186 
f 185//185 187//187 186//186 
f 186//186 187//187 187//187 
f 187//187 188//188 187//187 
f 187//187 188//188 188//188 
f 188//188 189//189 188//188 
f 188//188 189//189 190//190 
f 189//189 189//189 190//190 
f 190//190 189//189 191//191 
f 189//189 192//192 191//191 
f 191//191 192//192 191//191 
f 192//192 193//193 191//191 
f 191//191 193//193 194//194 
f 193//193 193//193 194//194 
f 194//194 193//193 195//195 
f 193//193 196//196 195//195 
f 195//195 196//196 197//197 
f 196//196 198//198 197//197 
f 197//197 198//198 199//199 
f 198//198 200//200 199//199 
f 199//199 200//200 201//201 
f 200//200 202//202 201//201 
f 201//201 202//202 203//203 
f 202//202 204//204 203//203 
f 203//203 204//204 205//205 
f 204//204 206//206 205//205 
f 205//205 206//206 206//206 
f 206//206 189//189 206//206 
f 206//206 189//189 189//189 
f 189//189 188//188 189//189 
f 189//189 188//188 207//207 
f 188//188 208//208 207//207 
f 207//207 208//208 209//209 
f 208//208 210//210 209//209 
f 209//209 210//210 211//211 
f 210//210 212//212 211//211 
f 211//211 212//212 213//213 
f 212//212 214//214 213//213 
f 213//213 214//214 215//215 
f 214//214 216//216 215//215 
f 215//215 216//216 217//217 
f 216//216 217//217 217//217 
f 217//217 217//217 218//218 
f 217//217 218//218 218//218 
f 218//218 218//218 219//219 
f 218//218 220//220 219//219 
f 219//219 220//220 221//221 
f 220//220 222//222 221//221 
f 221//221 222//222 223//223 
f 222//222 224//224 223//223 
f 223//223 224//224 225//225 
f 224//224 225//225 225//225 
f 225//225 225//225 226//226 
f 225//225 226//226 226//226 
f 226//226 226//226 227//227 
f 226//226 228//228 227//227 
f 227//227 228//228 229//229 
f 228//228 230//230 229//229 
f 229//229 230//230 231//231 
f 230//230 232//232 231//231 
f 231//231 232//232 233//233 
f 232//232 233//233 233//233 
f 233//233 233//233 234//234 
f 233//233 234//234 234//234 
f 234//234 234//234 235//235 
f 234//234 236//236 235//235 
f 235//235 236//236 237//237 
f 236//236 238//238 237//237 
f 237//237 238//238 239//239 
f 238//238 240//240 239//239 
f 239//239 240//240 241//241 
f 240//240 242//242 241//241 
f 241//241 242//242 243//243 
f 242//242 244//244 243//243 
f 243//243 244//244 245//245 
f 244//244 246//246 245//245 
f 245//245 246//246 247//247 
f 246//246 247//247 247//247 
f 247//247 247//247 248//248 
f 247//247 248//248 248//248 
f 248//248 248//248 249//249 
f 248//248 250//250 249//249 
f 249//249 250//250 251//251 
f 250//250 252//252 251//251 
f 251//251 252//252 253//253 
f 252//252 254//254 253//253 
f 253//253 254//254 255//255 
f 254//254 255//255 255//255 
f 255//255 255//255 256//256 
f 255//255 256//256 256//256 
f 256//256 256//256 257//257 
f 256//256 258//258 257//257 
f 257//257 258//258 257//257 
f 258//258 259//259 257//257 
f 257//257 259//259 257//257 
f 259//259 260//260 257//257 
f 257//257 260//260 261//261 
f 260//260 261//261 261//261 
f 261//261 261//261 262//262 
f 261//261 262//262 262//262 
f 262//262 262//262 263//263 
f 262//262 264//264 263//263 
f 263//263 264//264 263//263 
f 264//264 265//265 263//263 
f 263//263 265//265 266//266 
f 265//265 267//267 266//266 
f 266//266 267//267 268//268 
f 267//267 269//269 268//268 
f 268//268 269//269 269//269 
f 269//269 270//270 269//269 
f 269//269 270//270 270//270 
f 270//270 271//271 270//270 
f 270//270 271//271 272//272 
f 271//271 273//273 272//272 
f 272//272 273//273 274//274 
f 273//273 275//275 274//274 
f 274//274 275//275 276//276 
f 275//275 277//277 276//276 
f 276//276 277//277 277//277 
f 277//277 278//278 277//277 
f 277//277 278//278 278//278 
f 278//278 279//279 278//278 
f 278//278 279//279 280//280 
f 279//279 279//279 280//280 
f 280//280 279//279 281//281 
f 279//279 282//282 281//281 
f 281//281 282//282 283//283 
f 282//282 284//284 283//283 
f 283//283 284//284 285//285 
f 284//284 286//286 285//285 
f 285//285 286//286 287//287 
f 286//286 288//288 287//287 
f 287//287 288//288 289//289 
f 288//288 290//290 289//289 
f 289//289 290//290 290//290 
f 290//290 280//280 290//290 
f 290//290 280//280 280//280 
f 280//280 291//291 280//280 
f 280//280 291//291 278//278 
f 291//291 278//278 278//278 
f 278//278 278//278 292//292 
f 278//278 292//292 292//292 
f 292//292 292//292 293//293 
f 292//292 294//294 293//293 
f 293//293 294//294 293//293 
f 294//294 295//295 293//293 
f 293//293 295//295 296//296 
f 295//295 297//297 296//296 
f 296//296 297//297 298//298 
f 297//297 299//299 298//298 
f 298//298 299//299 299//299 
f 299//299 300//300 299//299 
f 299//299 300//300 300//300 
f 300//300 301//301 300//300 
f 300//300 301//301 302//302 
f 301//301 301//301 302//302 
f 302//302 301//301 303//303 
f 301//301 301//301 303//303 
f 303//303 301//301 304//304 
f 301//301 305//305 304//304 

